<svg width="16" height="16" viewBox="0 0 16 16" fill="none" xmlns="http://www.w3.org/2000/svg">
<path d="M12.6667 8.67078V7.10772C12.6667 6.56249 12.6667 6.28987 12.5652 6.04474C12.4637 5.7996 12.271 5.60683 11.8856 5.22129L8.72793 2.06222C8.39533 1.72948 8.22907 1.56312 8.023 1.46454C7.98013 1.44404 7.93627 1.42584 7.89147 1.41002C7.67607 1.33398 7.44093 1.33398 6.97053 1.33398C4.80721 1.33398 3.72554 1.33398 2.99289 1.92496C2.84487 2.04434 2.71005 2.17923 2.59071 2.3273C2 3.06027 2 4.14242 2 6.3067V9.33745C2 11.8527 2 13.1103 2.78105 13.8917C3.40977 14.5207 4.34695 14.6434 6 14.6673M8 1.66746V2.00094C8 3.88738 8 4.8306 8.5858 5.41664C9.1716 6.00268 10.1144 6.00268 12 6.00268H12.3333" stroke="#110E12" stroke-linecap="round" stroke-linejoin="round"/>
<path d="M10.6667 14.666C12.5076 14.666 14 12.666 14 12.666C14 12.666 12.5076 10.666 10.6667 10.666C8.82577 10.666 7.33337 12.666 7.33337 12.666C7.33337 12.666 8.82577 14.666 10.6667 14.666Z" stroke="#110E12" stroke-linejoin="round"/>
<path d="M10.6602 12.666H10.6662" stroke="#110E12" stroke-width="1.5" stroke-linecap="round" stroke-linejoin="round"/>
</svg>
