<svg width="16" height="16" viewBox="0 0 16 16" fill="none" xmlns="http://www.w3.org/2000/svg">
<path d="M10 1.66699V2.66699C10 3.6098 10 4.08121 10.2929 4.3741C10.5858 4.66699 11.0572 4.66699 12 4.66699H13" stroke="#110E12" stroke-linecap="round" stroke-linejoin="round"/>
<path d="M2.66663 10.6663V5.33301C2.66663 3.44739 2.66663 2.50458 3.25241 1.91879C3.8382 1.33301 4.78101 1.33301 6.66663 1.33301H9.44769C9.72016 1.33301 9.85643 1.33301 9.97896 1.38375C10.1014 1.4345 10.1978 1.53085 10.3905 1.72353L12.9428 4.27581C13.1354 4.4685 13.2318 4.56485 13.2826 4.68736C13.3333 4.80987 13.3333 4.94613 13.3333 5.21863V10.6663C13.3333 12.5519 13.3333 13.4947 12.7475 14.0805C12.1617 14.6663 11.2189 14.6663 9.33329 14.6663H6.66663C4.78101 14.6663 3.8382 14.6663 3.25241 14.0805C2.66663 13.4947 2.66663 12.5519 2.66663 10.6663Z" stroke="#110E12" stroke-linecap="round" stroke-linejoin="round"/>
<path d="M5.33337 7.33301H10.6667M5.33337 9.33301H10.6667M5.33337 11.333H8.11391" stroke="#110E12" stroke-linecap="round" stroke-linejoin="round"/>
</svg>
