<svg width="20" height="20" viewBox="0 0 20 20" fill="none" xmlns="http://www.w3.org/2000/svg">
<path d="M9.99996 1.04187C5.05996 1.04187 1.04163 5.06104 1.04163 10.0002C1.04163 14.9394 5.05996 18.9585 9.99996 18.9585C14.94 18.9585 18.9583 14.9394 18.9583 10.0002C18.9583 5.06104 14.94 1.04187 9.99996 1.04187ZM17.6766 9.3752H14.3016C14.1924 7.08937 13.4891 4.76021 12.2725 2.63438C15.225 3.54771 17.4191 6.19187 17.6766 9.3752ZM10.6083 2.32269C12.0716 4.49853 12.9241 6.96687 13.0516 9.3752H6.9483C7.07497 6.96687 7.92828 4.49853 9.39162 2.32269C9.59328 2.30686 9.79496 2.29187 9.99996 2.29187C10.205 2.29187 10.4075 2.30686 10.6083 2.32269ZM7.72747 2.63438C6.5108 4.76021 5.80747 7.08937 5.6983 9.3752H2.32329C2.58079 6.19187 4.77497 3.54771 7.72747 2.63438ZM2.32329 10.6252H5.6983C5.80747 12.911 6.5108 15.2402 7.72747 17.366C4.77497 16.4527 2.58079 13.8085 2.32329 10.6252ZM9.39162 17.6777C7.92828 15.5019 7.0758 13.0335 6.9483 10.6252H13.0516C12.9249 13.0335 12.0716 15.5019 10.6083 17.6777C10.4066 17.6935 10.205 17.7085 9.99996 17.7085C9.79496 17.7085 9.59245 17.6935 9.39162 17.6777ZM12.2725 17.366C13.4891 15.2402 14.1924 12.911 14.3016 10.6252H17.6766C17.4191 13.8085 15.225 16.4527 12.2725 17.366Z" fill="#110E12"/>
</svg>
