<svg width="20" height="20" viewBox="0 0 20 20" fill="none" xmlns="http://www.w3.org/2000/svg">
<path d="M14.1666 11.5037C14.1666 11.2157 14.1666 11.0717 14.21 10.9433C14.336 10.5703 14.6681 10.4257 15.0009 10.2741C15.375 10.1037 15.562 10.0185 15.7473 10.0035C15.9577 9.98649 16.1685 10.0318 16.3483 10.1327C16.5867 10.2665 16.753 10.5207 16.9232 10.7275C17.7093 11.6823 18.1024 12.1598 18.2462 12.6863C18.3623 13.1112 18.3623 13.5555 18.2462 13.9803C18.0365 14.7482 17.3737 15.392 16.8831 15.9878C16.6322 16.2926 16.5067 16.445 16.3483 16.5339C16.1685 16.6348 15.9577 16.6802 15.7473 16.6632C15.562 16.6482 15.375 16.563 15.0009 16.3926C14.6681 16.241 14.336 16.0963 14.21 15.7233C14.1666 15.595 14.1666 15.451 14.1666 15.1629V11.5037Z" stroke="#110E12" stroke-width="1.5"/>
<path d="M7.91663 17.5C9.06721 18.6111 10.9327 18.6111 12.0833 17.5" stroke="#110E12" stroke-width="1.5" stroke-linecap="round" stroke-linejoin="round"/>
<path d="M5.83329 11.5037C5.83329 11.1411 5.82311 10.8151 5.52988 10.5601C5.42323 10.4674 5.28183 10.403 4.99905 10.2741C4.62497 10.1038 4.43793 10.0186 4.25259 10.0036C3.69655 9.95864 3.39739 10.3381 3.07673 10.7276C2.29058 11.6824 1.89751 12.1598 1.75368 12.6863C1.63761 13.1111 1.63761 13.5555 1.75368 13.9803C1.96346 14.7482 2.62623 15.3918 3.1168 15.9876C3.42603 16.3632 3.72143 16.706 4.25259 16.663C4.43793 16.648 4.62497 16.5628 4.99905 16.3924C5.28183 16.2636 5.42323 16.1992 5.52988 16.1065C5.82311 15.8515 5.83329 15.5256 5.83329 15.1628V11.5037Z" stroke="#110E12" stroke-width="1.5"/>
<path d="M1.66663 13.3334V10.0001C1.66663 5.39771 5.39758 1.66675 9.99996 1.66675C14.6023 1.66675 18.3333 5.39771 18.3333 10.0001L18.3334 13.3334" stroke="#110E12" stroke-width="1.5" stroke-linecap="round" stroke-linejoin="round"/>
</svg>
