<svg width="16" height="16" viewBox="0 0 16 16" fill="none" xmlns="http://www.w3.org/2000/svg">
<path d="M10.3333 4.66663H5.66667M8.33267 7.33329H5.66602" stroke="#110E12" stroke-linecap="round" stroke-linejoin="round"/>
<path d="M13.3332 14.6667H3.99984C3.26346 14.6667 2.6665 14.0698 2.6665 13.3334M2.6665 13.3334C2.6665 12.597 3.26346 12 3.99984 12H13.3332V4.00004C13.3332 2.74296 13.3332 2.11442 12.9426 1.7239C12.5521 1.33337 11.9236 1.33337 10.6665 1.33337H6.6665C4.78088 1.33337 3.83808 1.33337 3.25229 1.91916C2.6665 2.50495 2.6665 3.44775 2.6665 5.33337V13.3334Z" stroke="#110E12" stroke-linecap="round" stroke-linejoin="round"/>
<path d="M13.0002 12C13.0002 12 12.3335 12.5085 12.3335 13.3333C12.3335 14.1581 13.0002 14.6667 13.0002 14.6667" stroke="#110E12" stroke-linecap="round" stroke-linejoin="round"/>
</svg>
