<svg width="20" height="27" viewBox="0 0 20 27" fill="none" xmlns="http://www.w3.org/2000/svg">
<path d="M14.1665 17.6287C14.1665 17.3407 14.1665 17.1967 14.2098 17.0683C14.3358 16.6953 14.668 16.5507 15.0008 16.3991C15.3748 16.2287 15.5618 16.1435 15.7472 16.1285C15.9576 16.1115 16.1683 16.1568 16.3482 16.2577C16.5866 16.3915 16.7528 16.6457 16.9231 16.8525C17.7092 17.8073 18.1023 18.2848 18.2461 18.8113C18.3622 19.2362 18.3622 19.6805 18.2461 20.1053C18.0363 20.8732 17.3736 21.517 16.883 22.1128C16.6321 22.4176 16.5066 22.57 16.3482 22.6589C16.1683 22.7598 15.9576 22.8052 15.7472 22.7882C15.5618 22.7732 15.3748 22.688 15.0008 22.5176C14.668 22.366 14.3358 22.2213 14.2098 21.8483C14.1665 21.72 14.1665 21.576 14.1665 21.2879V17.6287Z" stroke="#110E12" stroke-width="1.5"/>
<path d="M7.9165 23.625C9.06709 24.7361 10.9326 24.7361 12.0832 23.625" stroke="#110E12" stroke-width="1.5" stroke-linecap="round" stroke-linejoin="round"/>
<path d="M5.66667 17.6287C5.66667 17.2661 5.65648 16.9401 5.36326 16.6851C5.25661 16.5924 5.11521 16.528 4.83242 16.3991C4.45834 16.2288 4.2713 16.1436 4.08597 16.1286C3.52992 16.0836 3.23077 16.4631 2.91011 16.8526C2.12396 17.8074 1.73088 18.2848 1.58705 18.8113C1.47098 19.2361 1.47098 19.6805 1.58705 20.1053C1.79683 20.8732 2.4596 21.5168 2.95018 22.1126C3.25941 22.4882 3.55481 22.831 4.08597 22.788C4.2713 22.773 4.45834 22.6878 4.83242 22.5174C5.11521 22.3886 5.25661 22.3242 5.36326 22.2315C5.65648 21.9765 5.66667 21.6506 5.66667 21.2878V17.6287Z" stroke="#110E12" stroke-width="1.5"/>
<path d="M1.6665 19.4582V16.1248C1.6665 11.5225 5.39746 7.7915 9.99984 7.7915C14.6022 7.7915 18.3332 11.5225 18.3332 16.1248L18.3333 19.4582" stroke="#110E12" stroke-width="1.5" stroke-linecap="round" stroke-linejoin="round"/>
</svg>
