<svg width="16" height="16" viewBox="0 0 16 16" fill="none" xmlns="http://www.w3.org/2000/svg">
<path d="M10 1.66666V2.66666C10 3.60946 10 4.08087 10.2929 4.37376C10.5858 4.66666 11.0572 4.66666 12 4.66666H13" stroke="#110E12" stroke-linecap="round" stroke-linejoin="round"/>
<path d="M2.66675 10.6667V5.33334C2.66675 3.44772 2.66675 2.50492 3.25253 1.91913C3.83832 1.33334 4.78113 1.33334 6.66675 1.33334H9.44782C9.72028 1.33334 9.85655 1.33334 9.97908 1.38409C10.1015 1.43484 10.1979 1.53118 10.3906 1.72387L12.9429 4.27615C13.1355 4.46884 13.2319 4.56518 13.2827 4.6877C13.3334 4.81021 13.3334 4.94646 13.3334 5.21896V10.6667C13.3334 12.5523 13.3334 13.4951 12.7476 14.0809C12.1618 14.6667 11.219 14.6667 9.33341 14.6667H6.66675C4.78113 14.6667 3.83832 14.6667 3.25253 14.0809C2.66675 13.4951 2.66675 12.5523 2.66675 10.6667Z" stroke="#110E12" stroke-linecap="round" stroke-linejoin="round"/>
<path d="M5.33325 7.33334H10.6666M5.33325 9.33334H10.6666M5.33325 11.3333H8.11379" stroke="#110E12" stroke-linecap="round" stroke-linejoin="round"/>
</svg>
