<svg width="16" height="16" viewBox="0 0 16 16" fill="none" xmlns="http://www.w3.org/2000/svg">
<path d="M8.66675 13.8852V14.6673H9.44901C9.72188 14.6673 9.85835 14.6673 9.98108 14.6165C10.1037 14.5657 10.2003 14.4692 10.3932 14.2763L13.6089 11.0603C13.791 10.8783 13.882 10.7873 13.9307 10.6891C14.0232 10.5023 14.0232 10.2831 13.9307 10.0963C13.882 9.99805 13.791 9.90705 13.6089 9.72505C13.4269 9.54305 13.3359 9.45205 13.2377 9.40338C13.0509 9.31085 12.8316 9.31085 12.6448 9.40338C12.5466 9.45205 12.4556 9.54305 12.2736 9.72505L9.05788 12.9411C8.86488 13.134 8.76841 13.2305 8.71755 13.3531C8.66675 13.4759 8.66675 13.6123 8.66675 13.8852Z" stroke="#110E12" stroke-linejoin="round"/>
<path d="M12.6667 7.33398C12.6667 7.33398 12.6667 6.28772 12.5652 6.04269C12.4637 5.79766 12.271 5.60498 11.8856 5.2196L8.72793 2.0619C8.39533 1.72932 8.22907 1.56302 8.023 1.46448C7.98013 1.44398 7.93627 1.4258 7.89147 1.40999C7.67607 1.33398 7.44093 1.33398 6.97053 1.33398C4.80721 1.33398 3.72554 1.33398 2.99289 1.9247C2.84487 2.04404 2.71005 2.17886 2.59071 2.32687C2 3.05952 2 4.1412 2 6.30454V9.33398C2 11.8481 2 13.1053 2.78105 13.8863C3.48978 14.595 4.59047 14.6607 6.66667 14.6667M8 1.66732V2.00065C8 3.88627 8 4.82908 8.5858 5.41486C9.1716 6.00065 10.1144 6.00065 12 6.00065H12.3333" stroke="#110E12" stroke-linecap="round" stroke-linejoin="round"/>
</svg>
