<svg width="16" height="16" viewBox="0 0 16 16" fill="none" xmlns="http://www.w3.org/2000/svg">
<path d="M12.6667 7.33398C12.6667 7.33398 12.6667 6.28772 12.5652 6.04269C12.4637 5.79766 12.271 5.60498 11.8856 5.2196L8.72793 2.0619C8.39533 1.72932 8.22907 1.56302 8.023 1.46448C7.98013 1.44398 7.93627 1.4258 7.89147 1.40999C7.67607 1.33398 7.44093 1.33398 6.97053 1.33398C4.80721 1.33398 3.72554 1.33398 2.99289 1.9247C2.84487 2.04404 2.71005 2.17886 2.59071 2.32687C2 3.05952 2 4.1412 2 6.30454V9.33398C2 11.8481 2 13.1053 2.78105 13.8863C3.48978 14.595 4.59047 14.6607 6.66667 14.6667M8 1.66732V2.00065C8 3.88627 8 4.82908 8.5858 5.41486C9.1716 6.00065 10.1144 6.00065 12 6.00065H12.3333" stroke="#110E12" stroke-linecap="round" stroke-linejoin="round"/>
<path d="M12.7499 10.5273L12.5778 13.3121C12.5338 14.0236 12.5118 14.3793 12.3335 14.6351C12.2453 14.7615 12.1318 14.8683 12.0001 14.9485C11.7338 15.1107 11.3774 15.1107 10.6646 15.1107C9.95079 15.1107 9.59389 15.1107 9.32743 14.9481C9.1957 14.8678 9.08214 14.7609 8.994 14.6342C8.81572 14.3781 8.79421 14.0218 8.7512 13.3093L8.58325 10.5273" stroke="#110E12" stroke-linecap="round"/>
<path d="M8.16675 10.5279H13.1667M11.7933 10.5279L11.6037 10.1367C11.4777 9.87685 11.4147 9.74692 11.3061 9.66589C11.282 9.64791 11.2565 9.63193 11.2298 9.61808C11.1095 9.55566 10.9651 9.55566 10.6763 9.55566C10.3803 9.55566 10.2323 9.55566 10.11 9.6207C10.0829 9.63511 10.057 9.65175 10.0327 9.67043C9.92276 9.75475 9.86137 9.88943 9.73858 10.1588L9.57034 10.5279" stroke="#110E12" stroke-width="1.5" stroke-linecap="round"/>
</svg>
