<svg width="16" height="16" viewBox="0 0 16 16" fill="none" xmlns="http://www.w3.org/2000/svg">
<path d="M12.6667 8.67078V7.10772C12.6667 6.56249 12.6667 6.28987 12.5652 6.04474C12.4637 5.7996 12.271 5.60683 11.8856 5.22129L8.72793 2.06222C8.39533 1.72948 8.22907 1.56312 8.023 1.46454C7.98013 1.44404 7.93627 1.42584 7.89147 1.41002C7.67607 1.33398 7.44093 1.33398 6.97053 1.33398C4.80721 1.33398 3.72554 1.33398 2.99289 1.92496C2.84487 2.04434 2.71005 2.17923 2.59071 2.3273C2 3.06027 2 4.14242 2 6.3067V9.33745C2 11.8527 2 13.1103 2.78105 13.8917C3.40977 14.5207 4.34695 14.6434 6 14.6673M8 1.66746V2.00094C8 3.88738 8 4.8306 8.5858 5.41664C9.1716 6.00268 10.1144 6.00268 12 6.00268H12.3333" stroke="#110E12" stroke-linecap="round" stroke-linejoin="round"/>
<path d="M7.875 13.959C7.875 14.2302 7.875 14.3659 7.90482 14.4771C7.98573 14.7791 8.22158 15.0149 8.52354 15.0958C8.63481 15.1257 8.77043 15.1257 9.04167 15.1257H11.9583C12.2296 15.1257 12.3652 15.1257 12.4765 15.0958C12.7784 15.0149 13.0143 14.7791 13.0952 14.4771C13.125 14.3659 13.125 14.2302 13.125 13.959" stroke="#110E12" stroke-linecap="round" stroke-linejoin="round"/>
<path d="M11.8125 12.3542C11.8125 12.3542 10.8459 13.6667 10.5 13.6667C10.1541 13.6667 9.1875 12.3542 9.1875 12.3542M10.5 13.375V9.875" stroke="#110E12" stroke-linecap="round" stroke-linejoin="round"/>
</svg>
