<svg width="24" height="24" viewBox="0 0 24 24" fill="none" xmlns="http://www.w3.org/2000/svg">
<path d="M5.25 20.7501H18.75" stroke="#110E12" stroke-width="1.5" stroke-linecap="round" stroke-linejoin="round"/>
<path d="M16.7499 18H7.25009C6.24766 18 5.74645 18 5.36632 17.7185C4.98618 17.4369 4.82057 16.9431 4.48937 15.9553L2.29995 9.42626C2.18343 9.06652 2.2744 8.66991 2.53494 8.40177C2.86283 8.06433 3.37656 8.01197 3.76239 8.27669L4.9639 9.10106C6.1767 9.93318 6.78311 10.3492 7.39619 10.198C8.00928 10.0468 8.37318 9.39138 9.10098 8.08059L11.2602 4.19187C11.4119 3.91863 11.6942 3.75 12 3.75C12.3057 3.75 12.5881 3.91863 12.7398 4.19187L14.899 8.08059C15.6268 9.39138 15.9907 10.0468 16.6037 10.198C17.2169 10.3492 17.8233 9.93318 19.0361 9.10106L20.2376 8.27669C20.6234 8.01197 21.1372 8.06433 21.4651 8.40177C21.7256 8.66991 21.8166 9.06652 21.7001 9.42626L19.5106 15.9553C19.1794 16.9431 19.0138 17.4369 18.6337 17.7185C18.2535 18 17.7523 18 16.7499 18Z" stroke="#110E12" stroke-width="1.5" stroke-linecap="round" stroke-linejoin="round"/>
</svg>
